{
  "source": "C:\\Users\\Peter\\Desktop\\stuff\\MIUN\\quantitative_research\\video_compression\\videos\\BVI-HD\\BVI-HD_CDVL_videos\\ORIG\\BubblesPitcher_1920x1080_60fps.mp4",
  "output": "C:\\Users\\Peter\\Desktop\\stuff\\MIUN\\quantitative_research\\video_compression\\compressed_videos\\BVI-HD\\h264\\3\\BubblesPitcher_1920x1080_60fps_h264.mp4",
  "codec": "h264",
  "ok": "Input #0, mov,mp4,m4a,3gp,3g2,mj2, from 'C:\\Users\\Peter\\Desktop\\stuff\\MIUN\\quantitative_research\\video_compression\\videos\\BVI-HD\\BVI-HD_CDVL_videos\\ORIG\\BubblesPitcher_1920x1080_60fps.mp4':\n  Metadata:\n    major_brand     : isom\n    minor_version   : 512\n    compatible_brands: isomiso2avc1mp41\n    encoder         : Lavf54.28.101\n  Duration: 00:00:05.00, start: 0.000000, bitrate: 188849 kb/s\n  Stream #0:0[0x1](und): Video: h264 (High 4:4:4 Predictive) (avc1 / 0x31637661), yuv420p(progressive), 1920x1080, 188844 kb/s, 60 fps, 60 tbr, 60 tbn (default)\n    Metadata:\n      handler_name    : VideoHandler\n      vendor_id       : [0][0][0][0]\n[out#0/mp4 @ 0000027693301440] Codec AVOption b:a (set bitrate (in bits/s)) has not been used for any stream. The most likely reason is either wrong type (e.g. a video option with no video streams) or that it is a private option of some decoder which was not actually used for any stream.\nStream mapping:\n  Stream #0:0 -> #0:0 (h264 (native) -> h264 (libx264))\nPress [q] to stop, [?] for help\n[libx264 @ 0000027693aa2240] using cpu capabilities: MMX2 SSE2Fast SSSE3 SSE4.2 AVX FMA3 BMI2 AVX2\n[libx264 @ 0000027693aa2240] profile High, level 5.0, 4:2:0, 8-bit\n[libx264 @ 0000027693aa2240] 264 - core 165 r3222 b35605a - H.264/MPEG-4 AVC codec - Copyleft 2003-2025 - http://www.videolan.org/x264.html - options: cabac=1 ref=5 deblock=1:0:0 analyse=0x3:0x113 me=hex subme=8 psy=1 psy_rd=1.00:0.00 mixed_ref=1 me_range=16 chroma_me=1 trellis=2 8x8dct=1 cqm=0 deadzone=21,11 fast_pskip=1 chroma_qp_offset=-2 threads=18 lookahead_threads=3 sliced_threads=0 nr=0 decimate=1 interlaced=0 bluray_compat=0 constrained_intra=0 bframes=3 b_pyramid=2 b_adapt=1 b_bias=0 direct=3 weightb=1 open_gop=0 weightp=2 keyint=250 keyint_min=25 scenecut=40 intra_refresh=0 rc_lookahead=50 rc=cbr mbtree=1 bitrate=3000 ratetol=1.0 qcomp=0.60 qpmin=0 qpmax=69 qpstep=4 vbv_maxrate=3000 vbv_bufsize=3000 nal_hrd=none filler=0 ip_ratio=1.40 aq=1:1.00\nOutput #0, mp4, to 'C:\\Users\\Peter\\Desktop\\stuff\\MIUN\\quantitative_research\\video_compression\\compressed_videos\\BVI-HD\\h264\\3\\BubblesPitcher_1920x1080_60fps_h264.mp4':\n  Metadata:\n    major_brand     : isom\n    minor_version   : 512\n    compatible_brands: isomiso2avc1mp41\n    encoder         : Lavf62.3.100\n  Stream #0:0(und): Video: h264 (avc1 / 0x31637661), yuv420p(tv, progressive), 1920x1080, q=2-31, 3000 kb/s, 60 fps, 15360 tbn (default)\n    Metadata:\n      encoder         : Lavc62.11.100 libx264\n      handler_name    : VideoHandler\n      vendor_id       : [0][0][0][0]\n    Side data:\n      cpb: bitrate max/min/avg: 3000000/0/3000000 buffer size: 3000000 vbv_delay: N/A\nframe=    0 fps=0.0 q=0.0 size=       0KiB time=N/A bitrate=N/A speed=N/A elapsed=0:00:00.51    \nframe=    8 fps=7.7 q=34.0 size=       0KiB time=00:00:00.10 bitrate=   3.8kbits/s speed=0.0966x elapsed=0:00:01.03    \nframe=   41 fps= 26 q=33.0 size=       0KiB time=00:00:00.58 bitrate=   0.7kbits/s speed=0.374x elapsed=0:00:01.56    \nframe=   69 fps= 32 q=35.0 size=     256KiB time=00:00:01.05 bitrate=1997.7kbits/s speed=0.492x elapsed=0:00:02.13    \nframe=   96 fps= 35 q=36.0 size=     512KiB time=00:00:01.50 bitrate=2796.5kbits/s speed=0.547x elapsed=0:00:02.74    \nframe=  107 fps= 32 q=37.0 size=     512KiB time=00:00:01.75 bitrate=2397.0kbits/s speed=0.522x elapsed=0:00:03.35    \nframe=  110 fps= 28 q=38.0 size=     512KiB time=00:00:01.80 bitrate=2330.4kbits/s speed=0.454x elapsed=0:00:03.96    \nframe=  118 fps= 26 q=39.0 size=     512KiB time=00:00:01.93 bitrate=2169.7kbits/s speed=0.426x elapsed=0:00:04.53    \nframe=  128 fps= 25 q=40.0 size=     768KiB time=00:00:02.08 bitrate=3020.1kbits/s speed=0.41x elapsed=0:00:05.08    \nframe=  137 fps= 24 q=41.0 size=     768KiB time=00:00:02.23 bitrate=2817.2kbits/s speed=0.394x elapsed=0:00:05.66    \nframe=  147 fps= 24 q=42.0 size=     768KiB time=00:00:02.40 bitrate=2621.6kbits/s speed=0.385x elapsed=0:00:06.22    \nframe=  157 fps= 23 q=43.0 size=     768KiB time=00:00:02.58 bitrate=2435.6kbits/s speed=0.381x elapsed=0:00:06.78    \nframe=  168 fps= 23 q=43.0 size=    1024KiB time=00:00:02.75 bitrate=3050.5kbits/s speed=0.375x elapsed=0:00:07.34    \nframe=  178 fps= 22 q=44.0 size=    1024KiB time=00:00:02.91 bitrate=2876.2kbits/s speed=0.367x elapsed=0:00:07.94    \nframe=  187 fps= 22 q=45.0 size=    1024KiB time=00:00:03.06 bitrate=2735.5kbits/s speed=0.361x elapsed=0:00:08.50    \nframe=  196 fps= 22 q=45.0 size=    1280KiB time=00:00:03.23 bitrate=3243.1kbits/s speed=0.356x elapsed=0:00:09.07    \nframe=  207 fps= 22 q=45.0 size=    1280KiB time=00:00:03.41 bitrate=3069.1kbits/s speed=0.355x elapsed=0:00:09.62    \nframe=  218 fps= 21 q=45.0 size=    1280KiB time=00:00:03.58 bitrate=2926.4kbits/s speed=0.353x elapsed=0:00:10.16    \nframe=  228 fps= 21 q=45.0 size=    1280KiB time=00:00:03.76 bitrate=2783.9kbits/s speed=0.349x elapsed=0:00:10.78    \nframe=  253 fps= 22 q=46.0 size=    1536KiB time=00:00:04.15 bitrate=3032.1kbits/s speed=0.367x elapsed=0:00:11.30    \nframe=  284 fps= 24 q=-1.0 size=    1792KiB time=00:00:04.66 bitrate=3145.8kbits/s speed=0.393x elapsed=0:00:11.88    \n[mp4 @ 0000027693301540] Starting second pass: moving the moov atom to the beginning of the file\n[out#0/mp4 @ 0000027693301440] video:1899KiB audio:0KiB subtitle:0KiB other streams:0KiB global headers:0KiB muxing overhead: 0.157497%\nframe=  300 fps= 25 q=-1.0 Lsize=    1902KiB time=00:00:04.96 bitrate=3137.5kbits/s speed=0.407x elapsed=0:00:12.19    \n[libx264 @ 0000027693aa2240] frame I:2     Avg QP:24.68  size: 16156\n[libx264 @ 0000027693aa2240] frame P:207   Avg QP:37.30  size:  7143\n[libx264 @ 0000027693aa2240] frame B:91    Avg QP:25.29  size:  4759\n[libx264 @ 0000027693aa2240] consecutive B-frames: 59.3%  0.0%  2.0% 38.7%\n[libx264 @ 0000027693aa2240] mb I  I16..4: 55.7% 43.9%  0.5%\n[libx264 @ 0000027693aa2240] mb P  I16..4:  7.7% 11.1%  0.0%  P16..4: 16.8%  1.0%  0.9%  0.0%  0.0%    skip:62.3%\n[libx264 @ 0000027693aa2240] mb B  I16..4:  1.3%  1.2%  0.0%  B16..8: 20.2%  1.2%  0.1%  direct: 4.0%  skip:71.9%  L0:47.4% L1:51.2% BI: 1.4%\n[libx264 @ 0000027693aa2240] 8x8 transform intra:57.7% inter:95.0%\n[libx264 @ 0000027693aa2240] direct mvs  spatial:89.0% temporal:11.0%\n[libx264 @ 0000027693aa2240] coded y,uvDC,uvAC intra: 5.6% 30.7% 1.8% inter: 2.4% 8.3% 0.0%\n[libx264 @ 0000027693aa2240] i16 v,h,dc,p: 47% 33%  9% 11%\n[libx264 @ 0000027693aa2240] i8 v,h,dc,ddl,ddr,vr,hd,vl,hu:  5%  4% 78%  2%  3%  3%  2%  2%  2%\n[libx264 @ 0000027693aa2240] i4 v,h,dc,ddl,ddr,vr,hd,vl,hu: 12%  5% 38%  8% 10%  9%  7%  6%  5%\n[libx264 @ 0000027693aa2240] i8c dc,h,v,p: 72% 17% 10%  1%\n[libx264 @ 0000027693aa2240] Weighted P-Frames: Y:0.5% UV:0.5%\n[libx264 @ 0000027693aa2240] ref P L0: 45.0%  5.1% 19.1% 11.1% 10.4%  9.1%\n[libx264 @ 0000027693aa2240] ref B L0: 72.2% 17.7%  7.7%  2.4%\n[libx264 @ 0000027693aa2240] ref B L1: 92.7%  7.3%\n[libx264 @ 0000027693aa2240] kb/s:3110.47\n",
  "seconds": 12.41508960723877,
  "probe_out": {}
}